<svg width="58" height="58" viewBox="0 0 58 58" fill="none" xmlns="http://www.w3.org/2000/svg">
<circle cx="29" cy="29" r="29" fill="#124C5F"/>
<path d="M31.3968 20.7619L31.3958 20.7631C31.1946 20.9905 31.1096 21.2614 31.0657 21.4736C31.0184 21.703 30.9962 21.9806 30.9962 22.3178V24.1548V25.1548H31.9962H35.4174C35.5129 25.1548 35.5936 25.1785 35.6519 25.211C35.7995 25.2934 35.8886 25.4477 35.8888 25.6099C35.8888 25.6099 35.8888 25.61 35.8888 25.61C35.8888 25.6101 35.8888 25.6102 35.8888 25.6103L35.8869 30.2532V30.2536C35.8869 30.5017 35.6825 30.7086 35.4291 30.7086H31.9962H30.9962V31.7086V42.5448C30.9962 42.7932 30.7917 43.0001 30.5382 43.0001H25.7245C25.4709 43.0001 25.2665 42.7932 25.2665 42.5448V31.7084V30.7084H24.2665H21.4581C21.2045 30.7084 21 30.5015 21 30.2532V25.6101C21 25.3617 21.2045 25.1548 21.4581 25.1548H24.2665H25.2665V24.1548V21.8296C25.2665 19.7364 25.9211 18.0422 27.0794 16.8561L27.0794 16.8561C28.2409 15.6665 29.8936 15.0002 31.9333 15C31.9336 15 31.9338 15 31.9341 15L35.6035 15.0059C35.6035 15.0059 35.6036 15.0059 35.6036 15.0059C35.8564 15.0064 36.0608 15.2136 36.0608 15.4612V19.7724C36.0608 20.021 35.8563 20.2276 35.6029 20.2276H35.6025L33.1314 20.2286C33.1313 20.2286 33.1312 20.2286 33.1311 20.2286C32.318 20.2286 31.7386 20.377 31.3968 20.7619Z" stroke="white" stroke-width="2"/>
</svg>
