<svg width="160" height="50" viewBox="0 0 160 50" fill="none" xmlns="http://www.w3.org/2000/svg">
<g clip-path="url(#clip0_173_537)">
<path d="M24.2225 29.0188C23.8741 33.1859 27.3641 34.1504 30.192 38.0346C34.4006 43.6076 38.5673 42.6165 39.7505 39.1141C40.8769 35.7478 37.7699 32.8659 38.0664 29.1563C38.3629 25.4468 42.0876 22.5165 41.5641 19.1065C41.0405 15.6965 37.0196 14.672 31.8029 20.1787C28.2684 23.9859 24.6894 24.9007 24.2225 29.0188Z" fill="url(#paint0_linear_173_537)"/>
<path d="M18.1759 17.8233C20.8038 20.1878 24.2222 20.3243 25.7807 18.2545C27.3393 16.1847 26.4601 12.6274 23.7753 10.3991C21.1473 8.03466 17.729 7.89809 16.1704 9.96793C14.6687 11.9016 15.5479 15.4589 18.1759 17.8233Z" fill="url(#paint1_linear_173_537)"/>
<path d="M10.2504 28.1085C13.8541 28.8007 17.3664 27.3792 18.0902 24.6447C18.7572 22.0464 16.4182 19.3225 12.696 18.5813C9.09235 17.8891 5.58003 19.3106 4.85625 22.0451C4.18928 24.6434 6.64679 27.4163 10.2504 28.1085Z" fill="url(#paint2_linear_173_537)"/>
<path d="M10.8559 40.6983C14.4596 41.3905 17.9719 39.9691 18.6957 37.2346C19.3627 34.6363 17.0237 31.9123 13.3015 31.1711C9.69785 30.479 6.18553 31.9004 5.46175 34.6349C4.79478 37.2332 7.25229 40.0062 10.8559 40.6983Z" fill="url(#paint3_linear_173_537)"/>
<path d="M55.5152 26.875V21.875C56.5568 21.8021 57.2756 21.7656 57.6714 21.7656C58.8068 21.7344 59.8173 21.7708 60.7027 21.875C60.7339 22.1771 60.7495 22.3906 60.7495 22.5156C60.8433 23.5677 60.8902 24.2083 60.8902 24.4375C60.8902 25.25 60.8329 26.0625 60.7183 26.875H55.5152ZM64.437 17.7031L64.2183 17.6406C64.2391 17.6406 64.0412 17.6094 63.6245 17.5469C63.1141 17.474 62.6037 17.4062 62.0933 17.3438C60.4162 17.1562 58.9162 17.0729 57.5933 17.0938C56.2704 17.1146 54.6454 17.2292 52.7183 17.4375C52.1245 17.5104 51.5308 17.5833 50.937 17.6562C50.4475 17.7292 50.2079 17.7656 50.2183 17.7656L49.812 17.8281L49.3902 17.9062L50.062 18.4219C50.4579 18.7344 50.7443 19.0417 50.9214 19.3438C51.1402 19.7188 51.2495 20.1458 51.2495 20.625V39.2656H55.5152V30.875H64.4683L64.4995 30.6875L64.5152 30.5781C64.5673 30.3594 64.6298 30.0156 64.7027 29.5469C64.9943 27.8281 65.1402 26.2031 65.1402 24.6719C65.1402 21.9427 64.9266 19.6979 64.4995 17.9375L64.437 17.7031Z" fill="#124C5F"/>
<path d="M83.2808 38.3906C83.3016 38.3906 83.0881 38.4375 82.6402 38.5312C82.0985 38.6458 81.5412 38.7448 80.9683 38.8281C79.1141 39.1198 77.3693 39.2656 75.7339 39.2656C72.9631 39.2656 70.7391 39.0365 69.062 38.5781L68.812 38.4844V19.7031C68.812 18.6615 68.3693 17.8021 67.4839 17.125H73.0777L73.0464 34.5312C73.5048 34.6042 74.4006 34.6406 75.7339 34.6406C77.0881 34.6406 77.9683 34.6042 78.3745 34.5312V17.125L82.7027 17.0938V35.7031C82.7027 36.6094 82.9162 37.3021 83.3433 37.7812C83.562 38.0104 83.7808 38.1562 83.9995 38.2188L83.2808 38.3906Z" fill="#124C5F"/>
<path d="M92.4839 26.875V21.875C93.5256 21.8021 94.2443 21.7656 94.6402 21.7656C95.7756 21.7344 96.786 21.7708 97.6714 21.875C97.7027 22.1771 97.7183 22.3906 97.7183 22.5156C97.812 23.5677 97.8589 24.2083 97.8589 24.4375C97.8589 25.25 97.8016 26.0625 97.687 26.875H92.4839ZM101.406 17.7031L101.187 17.6406C101.208 17.6406 101.01 17.6094 100.593 17.5469C100.083 17.474 99.5725 17.4062 99.062 17.3438C97.385 17.1562 95.885 17.0729 94.562 17.0938C93.2391 17.1146 91.6141 17.2292 89.687 17.4375C89.0933 17.5104 88.4995 17.5833 87.9058 17.6562C87.4162 17.7292 87.1766 17.7656 87.187 17.7656L86.7808 17.8281L86.3589 17.9062L87.0308 18.4219C87.4266 18.7344 87.7131 19.0417 87.8902 19.3438C88.1089 19.7188 88.2183 20.1458 88.2183 20.625V39.2656H92.4839V30.875H101.437L101.468 30.6875L101.484 30.5781C101.536 30.3594 101.599 30.0156 101.671 29.5469C101.963 27.8281 102.109 26.2031 102.109 24.6719C102.109 21.9427 101.895 19.6979 101.468 17.9375L101.406 17.7031Z" fill="#124C5F"/>
<path d="M118.812 19.4531C118.791 19.0052 118.906 18.5938 119.156 18.2188C119.218 18.125 119.385 17.9323 119.656 17.6406L120.234 17H114.625V26.3594H110.203V17H104.453L105.218 17.6719C105.781 18.1615 106.052 18.7604 106.031 19.4688V36.7969C106.052 37.2448 105.953 37.6458 105.734 38C105.692 38.0521 105.572 38.1875 105.375 38.4062L104.593 39.2656H110.203V30.875H114.625V39.2656H120.375L119.656 38.5938C119.114 38.1042 118.833 37.5 118.812 36.7812V19.4531Z" fill="#124C5F"/>
<path d="M138.531 38.3906C138.552 38.3906 138.338 38.4375 137.89 38.5312C137.349 38.6458 136.791 38.7448 136.218 38.8281C134.364 39.1198 132.619 39.2656 130.984 39.2656C128.213 39.2656 125.989 39.0365 124.312 38.5781L124.062 38.4844V19.7031C124.062 18.6615 123.619 17.8021 122.734 17.125H128.328L128.296 34.5312C128.755 34.6042 129.651 34.6406 130.984 34.6406C132.338 34.6406 133.218 34.6042 133.625 34.5312V17.125L137.953 17.0938V35.7031C137.953 36.6094 138.166 37.3021 138.593 37.7812C138.812 38.0104 139.031 38.1562 139.25 38.2188L138.531 38.3906Z" fill="#124C5F"/>
<path d="M149.64 34.9219C148.765 34.9219 148.005 34.8802 147.359 34.7969V30.2344H152.218C152.479 30.7865 152.609 31.5677 152.609 32.5781C152.609 33.599 152.474 34.3125 152.203 34.7188C151.463 34.8542 150.609 34.9219 149.64 34.9219ZM152.265 23.7031C152.265 24.7031 152.14 25.4896 151.89 26.0625H147.359V21.5156C148.224 21.4115 148.932 21.3542 149.484 21.3438H149.64C150.234 21.3438 150.974 21.4115 151.859 21.5469C152.13 21.9635 152.265 22.6823 152.265 23.7031ZM156.984 23.3281C156.984 21.5677 156.625 19.724 155.906 17.7969L155.765 17.5781L155.546 17.5469C153.536 17.1823 151.64 17 149.859 17H149.578C147.734 17.0208 145.343 17.2344 142.406 17.6406L141.625 17.75L142.203 18.2969C142.859 18.9115 143.187 19.625 143.187 20.4375V35.8125C143.187 36.6667 142.864 37.3802 142.218 37.9531L141.609 38.4844L142.406 38.6094C144.802 39.0156 147.192 39.2344 149.578 39.2656H149.843C151.697 39.2656 153.687 39.0885 155.812 38.7344L156.046 38.6875L156.109 38.4688C156.817 36.0833 157.171 33.9688 157.171 32.125C157.171 30.9792 156.859 29.6406 156.234 28.1094C156.734 26.526 156.984 24.9323 156.984 23.3281Z" fill="#124C5F"/>
</g>
<defs>
<linearGradient id="paint0_linear_173_537" x1="39.2485" y1="16.3386" x2="29.6107" y2="39.6397" gradientUnits="userSpaceOnUse">
<stop offset="0.3125" stop-color="#124C5F"/>
<stop offset="1" stop-color="#124C5F" stop-opacity="0"/>
</linearGradient>
<linearGradient id="paint1_linear_173_537" x1="22.8855" y1="9.53296" x2="19.0932" y2="18.7009" gradientUnits="userSpaceOnUse">
<stop stop-color="#124C5F"/>
<stop offset="1" stop-color="#124C5F" stop-opacity="0"/>
</linearGradient>
<linearGradient id="paint2_linear_173_537" x1="13.4167" y1="18.6864" x2="9.55816" y2="28.0152" gradientUnits="userSpaceOnUse">
<stop stop-color="#124C5F"/>
<stop offset="1" stop-color="#124C5F" stop-opacity="0"/>
</linearGradient>
<linearGradient id="paint3_linear_173_537" x1="14.0222" y1="31.2763" x2="10.1637" y2="40.605" gradientUnits="userSpaceOnUse">
<stop stop-color="#124C5F"/>
<stop offset="1" stop-color="#124C5F" stop-opacity="0"/>
</linearGradient>
<clipPath id="clip0_173_537">
<rect width="160" height="50" fill="white"/>
</clipPath>
</defs>
</svg>
