<svg width="58" height="58" viewBox="0 0 58 58" fill="none" xmlns="http://www.w3.org/2000/svg">
<circle cx="29" cy="29" r="29" fill="#124C5F"/>
<path d="M24.5031 24.4243C23.1008 25.6158 22.587 27.7888 23.7978 29.532C24.9308 31.1633 26.358 32.5902 27.9889 33.7227C29.7322 34.9333 31.9051 34.4193 33.0965 33.017L33.1097 33.0231C34.6314 33.7281 36.2477 34.2112 37.9067 34.4574V37.9067L37.9053 37.9067L37.9016 37.9067C27.4815 37.9214 19.6022 29.9505 19.6133 19.618V19.6133H23.0621L23.0623 19.6149C23.3086 21.2737 23.7915 22.8885 24.4965 24.4102L24.5031 24.4243ZM37.9053 40.52H39.2134C39.935 40.52 40.52 39.935 40.52 39.2133V33.3304C40.52 32.6828 40.0457 32.1329 39.4052 32.0379L38.2891 31.8722C36.8774 31.6627 35.5031 31.2517 34.2082 30.6519L33.2244 30.1962C32.6544 29.9321 31.9771 30.1111 31.6119 30.6223L31.1666 31.2459C30.7763 31.7923 30.0311 31.9592 29.4795 31.5762C28.1045 30.6214 26.8994 29.4165 25.9442 28.0412C25.561 27.4896 25.728 26.7443 26.2745 26.354L26.8977 25.9089C27.409 25.5438 27.5881 24.8664 27.3239 24.2963L26.8677 23.3116C26.2679 22.0168 25.8569 20.6427 25.6473 19.2311L25.4816 18.1148C25.3865 17.4743 24.8367 17 24.1891 17H18.3067C17.585 17 17 17.585 17 18.3067V19.6152C16.9873 31.3836 26.0294 40.5368 37.9053 40.52Z" fill="white"/>
</svg>
